<svg width="16" height="188" viewBox="0 0 16 188" fill="none" xmlns="http://www.w3.org/2000/svg">
<path d="M6.134 3.52478L2 3.52478L2 0.226166L14.1499 0.226166V3.52478L10.0159 3.52478L10.0159 13.7652L6.134 13.7652L6.134 3.52478Z" fill="#FF8585"/>
<path d="M1 18H4.83151L4.83151 23.071H9.77214V18L13.6037 18L13.6037 31.5391H9.77214V26.4188H4.83151V31.5391H1L1 18Z" fill="#FF8585"/>
<path d="M5.89851 36H9.57877L15.5277 49.5883H11.3937L10.3854 47.1759H5.04146L4.03317 49.5883H0L5.89851 36ZM9.27628 44.2711L7.71343 40.431L6.15058 44.2711H9.27628Z" fill="#FF8585"/>
<path d="M6.29353 62.4681L1 54H5.38607L8.2597 58.9233L11.1333 54H15.4186L10.125 62.4188V67.5391H6.24312V62.4681H6.29353Z" fill="#FF8585"/>
<path d="M1 72H4.57943L10.2763 79.1388L10.2763 72H14.0574L14.0574 85.5391H10.6796L4.78109 78.1541L4.78109 85.5391H1L1 72Z" fill="#FF8585"/>
<path d="M5.89851 90H9.57878L15.5277 103.588H11.3937L10.3854 101.176H5.04146L4.03317 103.588H0L5.89851 90ZM9.2763 98.2711L7.71344 94.431L6.15058 98.2711H9.2763Z" fill="#FF8585"/>
<path d="M1 108H7.5539C8.6126 108 9.52007 108.148 10.2763 108.394C11.0325 108.64 11.6375 109.034 12.0912 109.477C12.8978 110.265 13.3012 111.299 13.3012 112.628V112.677C13.3012 113.711 13.0491 114.597 12.5449 115.286C12.0408 115.976 11.335 116.468 10.4779 116.862L13.8053 121.588H9.36883L6.59602 117.502H6.54561H4.88192V121.539H1.05042L1.05042 108H1ZM7.35224 114.499C8.00763 114.499 8.51178 114.351 8.86468 114.056C9.21758 113.76 9.41924 113.366 9.41924 112.874V112.825C9.41924 112.283 9.21758 111.889 8.86468 111.594C8.51178 111.348 8.00763 111.2 7.35224 111.2H4.83151L4.83151 114.45H7.35224V114.499Z" fill="#FF8585"/>
<path d="M5.94891 126H9.62918L15.5277 139.588H11.3937L10.3854 137.176H5.04146L4.03316 139.588H0L5.94891 126ZM9.32669 134.271L7.76384 130.431L6.20098 134.271H9.32669Z" fill="#FF8585"/>
<path d="M7.46136 169.081C6.40265 169.081 5.39436 168.884 4.4869 168.539C3.57943 168.194 2.7728 167.653 2.11741 167.062C1.46202 166.422 0.957881 165.684 0.554564 164.847C0.201662 164.01 0 163.074 0 162.139L0 162.09C0 161.105 0.201662 160.219 0.554564 159.333C0.907466 158.496 1.46202 157.708 2.11741 157.068C2.7728 156.428 3.57943 155.935 4.4869 155.542C5.39436 155.197 6.40265 155 7.46136 155C8.52006 155 9.52837 155.197 10.4358 155.542C11.3433 155.886 12.1499 156.428 12.8053 157.019C13.4607 157.659 13.9648 158.397 14.3682 159.234C14.7211 160.071 14.9227 161.006 14.9227 161.942V161.991C14.9227 162.976 14.7211 163.862 14.3682 164.748C14.0153 165.585 13.4607 166.373 12.8053 167.013C12.1499 167.653 11.3433 168.145 10.4358 168.539C9.52837 168.884 8.52006 169.081 7.46136 169.081ZM7.46136 165.684C7.9655 165.684 8.46966 165.585 8.92339 165.388C9.37712 165.191 9.73002 164.945 10.0325 164.6C10.335 164.256 10.5871 163.911 10.7383 163.468C10.8896 163.025 10.9904 162.582 10.9904 162.09V162.04C10.9904 161.548 10.8896 161.105 10.7383 160.662C10.5871 160.219 10.335 159.825 9.98209 159.48C9.6796 159.136 9.27629 158.889 8.87298 158.692C8.41924 158.496 7.96552 158.397 7.41095 158.397C6.85639 158.397 6.40266 158.496 5.94893 158.692C5.49519 158.889 5.14229 159.136 4.83981 159.48C4.53732 159.825 4.28524 160.169 4.134 160.613C3.98275 161.056 3.88192 161.499 3.88192 161.991V162.04C3.88192 162.533 3.98275 162.976 4.134 163.419C4.28524 163.862 4.53732 164.256 4.83981 164.6C5.14229 164.945 5.54561 165.191 5.94893 165.388C6.45307 165.585 6.95721 165.684 7.46136 165.684Z" fill="#FF8585"/>
<path d="M8.46137 187.081C7.40266 187.081 6.39437 186.933 5.48691 186.588C4.57945 186.244 3.77281 185.751 3.11742 185.161C2.46203 184.521 1.90747 183.782 1.55456 182.945C1.15125 182.108 1 181.123 1 180.09V180.04C1 179.056 1.20166 178.12 1.55456 177.283C1.90747 176.446 2.46203 175.659 3.11742 175.019C3.77281 174.379 4.57945 173.886 5.48691 173.542C6.39437 173.197 7.40266 173 8.46137 173C9.67132 173 10.73 173.197 11.6375 173.542C12.5449 173.886 13.3516 174.379 14.0574 174.969L11.7887 177.628C11.2846 177.234 10.7804 176.889 10.2763 176.692C9.77215 176.496 9.16717 176.348 8.46137 176.348C7.95722 176.348 7.50348 176.446 7.04975 176.643C6.59602 176.84 6.24313 177.086 5.94064 177.431C5.63815 177.776 5.38608 178.169 5.18442 178.613C4.98276 179.056 4.93235 179.548 4.93235 180.04V180.09C4.93235 180.631 5.03318 181.123 5.23484 181.616C5.4365 182.059 5.68856 182.453 6.04146 182.797C6.39436 183.142 6.79769 183.388 7.25142 183.585C7.70515 183.782 8.2093 183.88 8.76386 183.88C9.67132 183.88 10.4275 183.684 10.9821 183.339V181.714H8.25971L8.25971 178.908H14.6119V185.013C13.8557 185.604 12.9987 186.096 11.9904 186.49C10.8813 186.884 9.72173 187.081 8.46137 187.081Z" fill="#FF8585"/>
</svg>
